# xmcd
#
# Track frame offsets:
#	150
#	9505
#	22403
#	38174
#	49616
#	59723
#	67760
#	80289
#	92058
#	102580
#	113004
#	126409
#	138576
#	150120
#	162116
#	182324
#	197125
#	209221
#	222441
#	232765
#	249042
#	259093
#
# Disc length: 3587 seconds
# Revision: 4
# Processed by: cddbd v1.5.2PL0 Copyright (c) Steve Scherf et al.
# Submitted via: dBpowerAMP V12.0
#
DISCID=2a0e0116,2b0e0116
DTITLE=Various Artist - Country greats - Millenium collection (2000) 2CDs - CD2
DYEAR=2000
DGENRE=USA English Oldies Country Folk Protes Party Sauflied LineDance
TTITLE0=Frankie Lane - Rawhide
TTITLE1=Charlie Rich - The most beautiful girl (neu)
TTITLE2=Kenny Rogers - The gambler
TTITLE3=Bill Monroe - Orange blossom special
TTITLE4=Carl Perkins - Daddy sang bass
TTITLE5=Johnny Cash - Hey good looking
TTITLE6=Lynn Anderson - Stand by your man
TTITLE7=Kenny Rogers - Me and Bobby Mcgee
TTITLE8=Conway Twitty - It´s only believe
TTITLE9=Merle Hagard - Corina Corina (live)
TTITLE10=Freddy Fender - In the still of the night
TTITLE11=Don Williams - Some broken hearts never mend
TTITLE12=Mickey Gilley - Breathless
TTITLE13=Hank Locklin - Queen of heart
TTITLE14=Emmylou Harris - Love hurts
TTITLE15=Frankie Lane - Jezabel
TTITLE16=Johnny Cash - I walk the line
TTITLE17=Kenny Rogers - Ruby don´t take your love to town
TTITLE18=Dave Dudley - Six days on the road
TTITLE19=Lynn Anderson - The devil went down to Georgia
TTITLE20=Bobby Bare - Help it make it through the night
TTITLE21=Freddy Fender - Wasted days and wasted nights (live)
EXTD=
EXTT0=
EXTT1=
EXTT2=
EXTT3=
EXTT4=
EXTT5=
EXTT6=
EXTT7=
EXTT8=
EXTT9=
EXTT10=
EXTT11=
EXTT12=
EXTT13=
EXTT14=
EXTT15=
EXTT16=
EXTT17=
EXTT18=
EXTT19=
EXTT20=
EXTT21=
PLAYORDER=
